<?xml version="1.0" standalone="no"?>
<!DOCTYPE svg PUBLIC "-//W3C//DTD SVG 20010904//EN"
 "http://www.w3.org/TR/2001/REC-SVG-20010904/DTD/svg10.dtd">
<svg version="1.0" xmlns="http://www.w3.org/2000/svg"
 width="148.000000pt" height="156.000000pt" viewBox="0 0 148.000000 156.000000"
 preserveAspectRatio="xMidYMid meet">

<g transform="translate(0.000000,156.000000) scale(0.100000,-0.100000)"
fill="#000000" stroke="none">
<path d="M730 1381 c0 -5 7 -42 15 -82 9 -40 13 -74 11 -77 -3 -2 -42 1 -88 8
-101 15 -162 5 -250 -42 -67 -36 -126 -97 -159 -166 -31 -64 -37 -196 -15
-313 9 -47 16 -111 16 -141 0 -62 15 -84 53 -74 20 5 30 -3 61 -48 55 -80 217
-226 251 -226 9 0 39 8 67 17 52 17 78 15 225 -13 26 -5 40 -1 68 22 90 72
150 133 191 196 41 61 47 66 65 55 36 -22 53 2 61 84 3 41 12 99 18 130 7 31
10 98 9 150 -4 82 -8 103 -36 160 -62 126 -189 209 -332 217 -42 2 -94 -1
-115 -7 -22 -6 -41 -9 -43 -7 -2 2 3 35 12 75 8 40 15 77 15 82 0 5 -22 9 -50
9 -27 0 -50 -4 -50 -9z m80 -22 c0 -28 -24 -139 -30 -139 -6 0 -30 111 -30
139 0 6 14 11 30 11 17 0 30 -5 30 -11z m-138 -325 c51 -46 41 -115 -26 -191
-44 -50 -103 -82 -153 -83 -45 0 -62 9 -78 41 -43 82 14 209 110 245 50 18
119 12 147 -12z m350 16 c77 -22 137 -102 138 -183 0 -43 -22 -92 -45 -101
-49 -18 -126 5 -180 55 -136 126 -80 275 87 229z m-211 -250 c3 -36 11 -92 19
-126 14 -62 9 -99 -12 -92 -6 2 -16 17 -21 34 -15 44 -26 55 -47 44 -10 -6
-23 -10 -29 -10 -17 0 -13 42 9 85 11 22 20 52 20 68 0 39 18 69 38 65 13 -2
18 -18 23 -68z m-406 -256 c0 -79 13 -104 51 -104 22 0 36 11 72 54 10 13 17
14 33 5 19 -10 21 -18 17 -115 -2 -71 -7 -104 -15 -104 -19 0 -123 100 -170
164 -35 47 -43 66 -43 101 0 59 8 77 34 73 19 -3 21 -9 21 -74z m799 60 c17
-43 5 -87 -40 -154 -44 -67 -143 -170 -162 -170 -11 0 -22 73 -22 151 0 48 4
60 20 69 14 8 22 6 32 -6 36 -43 50 -54 72 -54 39 0 55 33 49 95 -3 30 -3 61
0 69 8 21 43 21 51 0z m-484 -205 c0 -41 18 -59 60 -59 42 0 60 18 60 60 0 15
5 20 18 18 14 -3 17 -17 20 -87 l3 -83 -48 8 c-61 10 -80 10 -120 1 l-33 -6 0
78 c0 43 3 81 7 84 14 14 33 6 33 -14z"/>
</g>
</svg>
